<?xml version="1.0" encoding="utf-8"?>
<!-- Generator: Adobe Illustrator 16.0.0, SVG Export Plug-In . SVG Version: 6.00 Build 0)  -->
<!DOCTYPE svg PUBLIC "-//W3C//DTD SVG 1.1//EN" "http://www.w3.org/Graphics/SVG/1.1/DTD/svg11.dtd">
<svg version="1.1" id="Layer_1" xmlns="http://www.w3.org/2000/svg" xmlns:xlink="http://www.w3.org/1999/xlink" x="0px" y="0px"
	 width="612px" height="792px" viewBox="0 0 612 792" enable-background="new 0 0 612 792" xml:space="preserve">
<g id="g24" transform="translate(265.3481,392.7275)">
	<path id="path26" fill="#FFFFFF" d="M133.929,61.314c52.182,0,94.478,47.497,94.478,106.131
		c0,58.632-42.296,106.115-94.478,106.115c-52.198,0-94.443-47.483-94.443-106.115C39.486,108.812,81.731,61.314,133.929,61.314"/>
</g>
<g id="g28" transform="translate(265.3481,392.7275)">
	<path id="path30" fill="none" stroke="#000000" stroke-width="8" d="M133.929,61.314c52.182,0,94.478,47.497,94.478,106.131
		c0,58.632-42.296,106.115-94.478,106.115c-52.198,0-94.443-47.483-94.443-106.115C39.486,108.812,81.731,61.314,133.929,61.314z"/>
</g>
<g id="g32" transform="translate(258.4063,376.5361)">
	<path id="path34" fill="#FFFFFF" d="M-7.796,400.257c1.347-3.923,2.317-8.003,2.317-12.271c0-27.129-29.152-49.118-65.106-49.118
		c-35.955,0-65.083,21.989-65.083,49.118c0,4.268,0.945,8.348,2.317,12.271H-7.796z"/>
</g>
<g id="g36" transform="translate(258.4063,376.5361)">
	<path id="path38" fill="none" stroke="#000000" stroke-width="8" stroke-linecap="round" stroke-linejoin="round" d="
		M-7.796,400.257c1.347-3.923,2.317-8.003,2.317-12.271c0-27.129-29.152-49.118-65.106-49.118
		c-35.955,0-65.083,21.989-65.083,49.118c0,4.268,0.945,8.348,2.317,12.271H-7.796z"/>
</g>
<g id="g40" transform="translate(269.0518,376.5361)">
	<path id="path42" fill="#FFFFFF" d="M209.527,400.257c1.356-3.923,2.294-8.003,2.294-12.271c0-27.129-29.146-49.118-65.1-49.118
		c-35.952,0-65.081,21.989-65.081,49.118c0,4.268,0.937,8.348,2.291,12.271H209.527z"/>
</g>
<g id="g44" transform="translate(269.0518,376.5361)">
	<path id="path46" fill="none" stroke="#000000" stroke-width="8" stroke-linecap="round" stroke-linejoin="round" d="
		M209.527,400.257c1.356-3.923,2.294-8.003,2.294-12.271c0-27.129-29.146-49.118-65.1-49.118c-35.952,0-65.081,21.989-65.081,49.118
		c0,4.268,0.937,8.348,2.291,12.271H209.527z"/>
</g>
<g id="g48" transform="translate(252.4888,403.9858)">
	<path id="path50" fill="#FFFFFF" d="M-128.604-174.368c0,29.761-25.907,53.86-57.88,53.86c-31.954,0-57.845-24.099-57.845-53.86
		c0-29.759,25.891-53.874,57.845-53.874C-154.511-228.242-128.604-204.127-128.604-174.368"/>
</g>
<g id="g52" transform="translate(252.4888,403.9858)">
	<path id="path54" fill="none" stroke="#000000" stroke-width="8" d="M-128.604-174.368c0,29.761-25.907,53.86-57.88,53.86
		c-31.954,0-57.845-24.099-57.845-53.86c0-29.759,25.891-53.874,57.845-53.874C-154.511-228.242-128.604-204.127-128.604-174.368z"
		/>
</g>
<path id="path58" fill="#FFFFFF" d="M597.217,229.618c0,29.761-25.917,53.86-57.888,53.86c-31.938,0-57.837-24.099-57.837-53.86
	c0-29.759,25.898-53.874,57.837-53.874C571.3,175.744,597.217,199.859,597.217,229.618"/>
<path id="path62" fill="none" stroke="#000000" stroke-width="8" d="M597.217,229.618c0,29.761-25.917,53.86-57.888,53.86
	c-31.938,0-57.837-24.099-57.837-53.86c0-29.759,25.898-53.874,57.837-53.874C571.3,175.744,597.217,199.859,597.217,229.618"/>
<g id="g64" transform="translate(268.3286,413.4697)">
	<path id="path66" fill="none" stroke="#000000" stroke-width="8" stroke-linecap="round" stroke-linejoin="round" d="
		M194.759-372.893L79.051-398.254L36.522-273.109"/>
</g>
<g id="g68" transform="translate(256.2495,392.7275)">
	<path id="path70" fill="#FFFFFF" d="M-51.823,61.314c52.183,0,94.46,47.497,94.46,106.131c0,58.632-42.278,106.115-94.46,106.115
		c-52.167,0-94.444-47.483-94.444-106.115C-146.268,108.812-103.99,61.314-51.823,61.314"/>
</g>
<g id="g72" transform="translate(256.2495,392.7275)">
	<path id="path74" fill="none" stroke="#000000" stroke-width="8" d="M-51.823,61.314c52.183,0,94.46,47.497,94.46,106.131
		c0,58.632-42.278,106.115-94.46,106.115c-52.167,0-94.444-47.483-94.444-106.115C-146.268,108.812-103.99,61.314-51.823,61.314z"/>
</g>
<g id="g76" transform="translate(272.6641,413.0327)">
	<path id="path78" fill="#FFFFFF" d="M283.278-363.751c0,23.445-20.427,42.46-45.591,42.46c-25.229,0-45.641-19.015-45.641-42.46
		c0-23.461,20.411-42.452,45.641-42.452C262.852-406.203,283.278-387.212,283.278-363.751"/>
</g>
<g id="g80" transform="translate(272.6641,413.0327)">
	<path id="path82" fill="none" stroke="#000000" stroke-width="8" d="M283.278-363.751c0,23.445-20.427,42.46-45.591,42.46
		c-25.229,0-45.641-19.015-45.641-42.46c0-23.461,20.411-42.452,45.641-42.452C262.852-406.203,283.278-387.212,283.278-363.751z"/>
</g>
<g id="g84" transform="translate(259.2842,376.5332)">
	<path id="path86" fill="#FFFFFF" d="M10.132,400.323h64.026c56.867-27.563,99.028-126.393,99.028-244.404
		c0-139.348-58.69-252.284-131.042-252.284c-72.385,0-131.042,112.937-131.042,252.284
		C-88.897,273.931-46.753,372.76,10.132,400.323"/>
</g>
<g id="g88" transform="translate(259.2842,376.5332)">
	<path id="path90" fill="none" stroke="#000000" stroke-width="8" d="M10.132,400.323h64.026
		c56.867-27.563,99.028-126.393,99.028-244.404c0-139.348-58.69-252.284-131.042-252.284c-72.385,0-131.042,112.937-131.042,252.284
		C-88.897,273.931-46.753,372.76,10.132,400.323z"/>
</g>
<g id="g92" transform="translate(273.0176,400.2695)">
	<path id="path94" fill="#FFFFFF" d="M290.487-96.57c0,87.926-117.313,159.188-262.092,159.188
		c-144.744,0-262.076-71.262-262.076-159.188c0-87.926,117.333-159.212,262.076-159.212
		C173.174-255.782,290.487-184.497,290.487-96.57"/>
</g>
<g id="g96" transform="translate(273.0176,400.2695)">
	<path id="path98" fill="none" stroke="#000000" stroke-width="8" d="M290.487-96.57c0,87.926-117.313,159.188-262.092,159.188
		c-144.744,0-262.076-71.262-262.076-159.188c0-87.926,117.333-159.212,262.076-159.212
		C173.174-255.782,290.487-184.497,290.487-96.57z"/>
</g>
<g id="g100" transform="translate(257.5601,376.5361)">
	<path id="path102" fill="none" stroke="#000000" stroke-width="8" stroke-linecap="round" stroke-linejoin="round" d="
		M-25.069,400.257h141.257"/>
</g>
<g id="g156" transform="translate(257.9604,401.8286)">
	<path id="path158" fill="#FF4500" d="M-16.894-129.206c0,15.745-13.728,28.506-30.625,28.506
		c-16.939,0-30.651-12.762-30.651-28.506c0-15.768,13.711-28.529,30.651-28.529C-30.622-157.735-16.894-144.974-16.894-129.206"/>
</g>
<g id="g160" transform="translate(257.9604,401.8286)">
	<path id="path162" fill="none" stroke="#FF4500" stroke-width="8" d="M-16.894-129.206c0,15.745-13.728,28.506-30.625,28.506
		c-16.939,0-30.651-12.762-30.651-28.506c0-15.768,13.711-28.529,30.651-28.529C-30.622-157.735-16.894-144.974-16.894-129.206z"/>
</g>
<g id="g164" transform="translate(266.583,401.8286)">
	<path id="path166" fill="#FF4500" d="M159.129-129.206c0,15.745-13.702,28.506-30.616,28.506
		c-16.899,0-30.617-12.762-30.617-28.506c0-15.768,13.718-28.529,30.617-28.529C145.427-157.735,159.129-144.974,159.129-129.206"/>
</g>
<g id="g168" transform="translate(266.583,401.8286)">
	<path id="path170" fill="none" stroke="#FF4500" stroke-width="8" d="M159.129-129.206c0,15.745-13.702,28.506-30.616,28.506
		c-16.899,0-30.617-12.762-30.617-28.506c0-15.768,13.718-28.529,30.617-28.529C145.427-157.735,159.129-144.974,159.129-129.206z"
		/>
</g>
<g id="g172" transform="translate(256.6104,396.5933)">
	<path id="path174" fill="none" stroke="#000000" stroke-width="8" stroke-linecap="round" d="M-44.456-19.614
		C-21.626,1.634,15.206,5.731,45.731,5.731"/>
</g>
<g id="g176" transform="translate(265.0654,396.5933)">
	<path id="path178" fill="none" stroke="#000000" stroke-width="8" stroke-linecap="round" d="M128.155-19.614
		C105.303,1.634,68.511,5.731,37.945,5.731"/>
</g>
</svg>
